<svg width="333" height="18" viewBox="0 0 333 18" fill="none" xmlns="http://www.w3.org/2000/svg">
<path fill-rule="evenodd" clip-rule="evenodd" d="M5.37891 3.14442L104.133 3.00019C107.51 2.99514 109.442 4.64784 109.943 7.95846L110.235 10.159C110.737 13.7954 108.912 15.8485 105.205 15.8541L6.45086 15.998C3.07393 16.003 1.14175 14.3503 0.640686 11.0397L0.349061 8.8392C-0.153086 5.20274 1.67237 3.14968 5.37891 3.14442Z" fill="#E3E3E3"/>
<path fill-rule="evenodd" clip-rule="evenodd" d="M77.9456 3.08177L176.699 2.93754C180.077 2.93249 182.008 4.58519 182.51 7.89581L182.802 10.0963C183.304 13.7328 181.478 15.7859 177.772 15.7915L79.0175 15.9353C75.6406 15.9404 73.7084 14.2877 73.2074 10.977L72.9157 8.77655C72.4136 5.14009 74.2391 3.08703 77.9456 3.08177Z" fill="#E3E3E3"/>
<path fill-rule="evenodd" clip-rule="evenodd" d="M155.239 2.94649L253.993 2.80226C257.37 2.79721 259.302 4.44991 259.803 7.76053L260.095 9.96105C260.598 13.5975 258.772 15.6506 255.065 15.6562L156.311 15.8C152.934 15.8051 151.002 14.1524 150.501 10.8418L150.21 8.64127C149.707 5.00481 151.533 2.95175 155.239 2.94649Z" fill="#E3E3E3"/>
<path fill-rule="evenodd" clip-rule="evenodd" d="M227.806 2.88384L326.56 2.73961C329.937 2.73456 331.869 4.38726 332.37 7.69788L332.662 9.8984C333.164 13.5349 331.339 15.5879 327.632 15.5935L228.878 15.7374C225.501 15.7425 223.569 14.0897 223.068 10.7791L222.776 8.57862C222.274 4.94216 224.1 2.8891 227.806 2.88384Z" fill="#E3E3E3"/>
</svg>
